{"title":"The Following S02E05 HDTV x264 AAC [GWC].mp4","uid":9630863,"size":159936187,"categoryP":"video","categoryS":"tv_shows","magnet":"?xt=urn:btih:83dc3d25417ed15e41de94d1b02204fc7dec0624&amp;dn=The+Following+S02E05+HDTV+x264+AAC+%5BGWC%5D.mp4&amp;tr=udp%3A%2F%2Ftracker.openbittorrent.com%3A80&amp;tr=udp%3A%2F%2Fopen.demonii.com%3A1337&amp;tr=udp%3A%2F%2Ftracker.coppersurfer.tk%3A6969&amp;tr=udp%3A%2F%2Fexodus.desync.com%3A6969","seeders":2,"leechers":0,"uploader":"canc232","files":1,"time":1392784166,"description":"The Following S02E05 HDTV x264 AAC [GWC]\n\nSCREENS: &lt;a href=&quot;\nhttp://i.imgur.com/6qVTVyr.jpg&quot; rel=&quot;nofollow&quot; target=&quot;_NEW&quot;&gt;\nhttp://i.imgur.com/6qVTVyr.jpg&lt;/a&gt; &lt;a href=&quot;\nhttp://i.imgur.com/veo83Vh.jpg&quot; rel=&quot;nofollow&quot; target=&quot;_NEW&quot;&gt;\nhttp://i.imgur.com/veo83Vh.jpg&lt;/a&gt;\n\nMEDIA INFO :\nGeneral \nFormat : MPEG-4 \nFormat profile : Base Media \nFile size : 153 MiB \nDuration : 42mn 7s \nOverall bit rate mode : Variable \nOverall bit rate : 506 Kbps \n\nVideo \nFormat : AVC \nFormat profile : &lt;a class=&quot;__cf_email__&quot; href=&quot;/cdn-cgi/l/email-protection&quot; data-cfemail=&quot;c981a0aea18985fae7f9&quot;&gt;[email&amp;#160;protected]&lt;/a&gt;&lt;script cf-hash='f9e31' type=&quot;text/javascript&quot;&gt;\n/* &lt;![CDATA[ */!function(){try{var t=&quot;currentScript&quot;in document?document.currentScript:function(){for(var t=document.getElementsByTagName(&quot;script&quot;),e=t.length;e--;)if(t[e].getAttribute(&quot;cf-hash&quot;))return t[e]}();if(t&amp;&amp;t.previousSibling){var e,r,n,i,c=t.previousSibling,a=c.getAttribute(&quot;data-cfemail&quot;);if(a){for(e=&quot;&quot;,r=parseInt(a.substr(0,2),16),n=2;a.length-n;n+=2)i=parseInt(a.substr(n,2),16)^r,e+=String.fromCharCode(i);e=document.createTextNode(e),c.parentNode.replaceChild(e,c)}}}catch(u){}}();/* ]]&gt; */&lt;/script&gt; \nFormat settings, CABAC : Yes \nFormat settings, ReFrames : 4 frames \nDuration : 42mn 7s \nBit rate : 443 Kbps \nMaximum bit rate : 3 065 Kbps \nWidth : 720 pixels \nHeight : 404 pixels \nDisplay aspect ratio : 16:9 \nFrame rate : 23.976 fps \nStream size : 134 MiB (88%) \nTitle : The Following S02E05 HDTV x264 AAC [GWC] \nWriting library : x264 core \n\nAudio \nFormat : AAC \nFormat profile : HE-AAC / LC \nDuration : 42mn 7s \nBit rate mode : Variable \nChannel(s) : 2 channels \nSampling rate : 48.0 KHz / 24.0 KHz \nStream size : 18.1 MiB (12%) \nLanguage : English ","torrent":{"xt":"urn:btih:83dc3d25417ed15e41de94d1b02204fc7dec0624","amp;dn":"The+Following+S02E05+HDTV+x264+AAC+%5BGWC%5D.mp4","amp;tr":["udp%3A%2F%2Ftracker.openbittorrent.com%3A80","udp%3A%2F%2Fopen.demonii.com%3A1337","udp%3A%2F%2Ftracker.coppersurfer.tk%3A6969","udp%3A%2F%2Fexodus.desync.com%3A6969"],"infoHash":"83dc3d25417ed15e41de94d1b02204fc7dec0624","infoHashBuffer":{"type":"Buffer","data":[131,220,61,37,65,126,209,94,65,222,148,209,176,34,4,252,125,236,6,36]},"announce":[],"urlList":[]}}